<svg xmlns="http://www.w3.org/2000/svg" width="430" height="430" fill="none" viewBox="0 0 430 430"><g stroke="#8930e8" stroke-width="12"><path stroke-linecap="round" stroke-linejoin="round" d="M312.601 305.475c-26.273 14.715-58.717 23.408-93.825 23.408s-67.552-8.693-93.825-23.408"/><path stroke-linejoin="round" d="M158.352 72.148c3.725 6.192 6.909 13.393 9.531 21.46 15.975-4.123 33.091-6.358 50.893-6.358 15.228 0 29.955 1.636 43.895 4.69 2.513-7.394 5.511-14.03 8.977-19.792 25.747 3.086 49.437 10.893 69.495 22.22 20.228 24.718 37.723 59.3 48.459 99.37 11.642 43.446 13.177 85.277 6.259 118.097-21.508 20.403-52.494 36.375-88.916 45.331-7.134-12.146-13.866-25.549-20.013-39.981-20.648 7.5-43.759 11.698-68.156 11.698-26.99 0-52.406-5.137-74.653-14.199-6.428 15.387-13.524 29.638-21.068 42.482-36.422-8.956-67.408-24.928-88.916-45.331-6.918-32.82-5.383-74.651 6.259-118.097 10.736-40.07 28.23-74.652 48.46-99.37 20.057-11.327 43.747-19.134 69.494-22.22Z"/><path d="M310 230c0 16.569-11.193 30-25 30s-25-13.431-25-30 11.193-30 25-30 25 13.431 25 30Zm-140 0c0 16.569-11.193 30-25 30s-25-13.431-25-30 11.193-30 25-30 25 13.431 25 30Z"/></g></svg>