<svg xmlns="http://www.w3.org/2000/svg" width="430" height="430" fill="none" viewBox="0 0 430 430"><path stroke="#e8e230" stroke-linejoin="round" stroke-width="12" d="M114.957 140c0-55.228 44.772-100 100-100s100 44.772 100 100v41.316l25.849-9.692c11.934-4.474 25.236 1.573 29.71 13.507s-1.573 25.235-13.507 29.71l-42.052 15.766v2.992c0 6.056 1.225 12.132 4.522 17.211 12.765 19.667 33.988 32.041 56.539 34.645 14.093 1.628 25.752 16.796 14.184 25.007-12.557 8.913-27.905 14.153-44.476 14.153-4.204 0-8.329-.337-12.35-.986-6.926-1.118-12.71 6.098-7.125 10.343 14.966 11.375 20.811 37.054 2.048 38.197-11.074.674-22.468-1.047-33.44-5.48a85 85 0 0 1-1.238-.512c-14.153-6.002-33.236-3.456-46.306 4.639-9.401 5.823-20.487 9.184-32.358 9.184s-22.957-3.361-32.358-9.184c-13.069-8.095-32.153-10.641-46.306-4.639q-.616.26-1.238.512c-10.972 4.433-22.366 6.154-33.439 5.48-18.763-1.143-12.919-26.822 2.047-38.197 5.586-4.245-.199-11.461-7.125-10.343a77.5 77.5 0 0 1-12.35.986c-16.571 0-31.919-5.24-44.476-14.153-11.568-8.211.091-23.379 14.184-25.007 22.55-2.604 43.775-14.978 56.539-34.645 3.297-5.079 4.522-11.155 4.522-17.211v-2.992l-42.052-15.766c-11.934-4.475-17.981-17.776-13.507-29.71s17.776-17.981 29.71-13.507l25.849 9.692z"/></svg>