<svg xmlns="http://www.w3.org/2000/svg" width="430" height="430" fill="none" viewBox="0 0 430 430"><g fill-rule="evenodd" clip-rule="evenodd"><path fill="url(#uAIcMqgP05a)" d="m95.657 226.71 42.216 11.513 26.406 83.585a6 6 0 0 0 9.978 2.421l39.001-39.27 33.732 24.737c6.224 4.564 15.092 1.466 17.119-5.982l45.285-166.375c2.394-8.792-6.329-16.515-14.767-13.074l-200.23 81.646c-9.737 3.971-8.886 18.032 1.26 20.799m88.654 22.14 31.734 23.272q.14.097.277.203l36.59 26.833 44.372-163.018-195.623 79.769 40.184 10.959 106.252-58.439a6 6 0 0 1 7.134 9.5zm-18.024 39.48 2.85-39.182q.01-.156.029-.311a5.97 5.97 0 0 1 1.714-3.527l46.036-46.035-67.103 36.906z"/><path fill="url(#0yCqcfyS-mb)" d="M215 41.5c-95.821 0-173.5 77.679-173.5 173.5S119.179 388.5 215 388.5 388.5 310.821 388.5 215 310.821 41.5 215 41.5M53.5 215c0-89.194 72.306-161.5 161.5-161.5S376.5 125.806 376.5 215 304.194 376.5 215 376.5 53.5 304.194 53.5 215"/></g><defs><linearGradient id="uAIcMqgP05a" x1="155.012" x2="340.193" y1="118.561" y2="327.144" gradientUnits="userSpaceOnUse"><stop stop-color="#30c9e8"/><stop offset="1" stop-color="#30c9e8"/></linearGradient><linearGradient id="0yCqcfyS-mb" x1="155.012" x2="340.193" y1="118.561" y2="327.144" gradientUnits="userSpaceOnUse"><stop stop-color="#30c9e8"/><stop offset="1" stop-color="#30c9e8"/></linearGradient></defs></svg>