<svg xmlns="http://www.w3.org/2000/svg" width="430" height="430" fill="none" viewBox="0 0 430 430"><g fill="#3a3347"><path d="M286.447 30c1.657 0 2.994 1.348 3.057 3.004 1.54 40.655 34.212 73.336 74.856 74.877 1.655.063 3.004 1.4 3.004 3.057v67.836c0 1.657-1.344 3.003-3.001 2.971-27.358-.531-52.943-8.305-74.916-21.484v130.626h-.012C288.558 351.298 239.327 400 178.723 400 117.573 400 68 350.414 68 289.246c0-58.743 45.72-106.804 103.508-110.522 1.696-.109 3.115 1.254 3.115 2.954v68.189c0 1.529-1.156 2.801-2.659 3.079-17.156 3.176-30.148 18.22-30.148 36.3 0 20.389 16.524 36.918 36.907 36.918 20.379 0 36.901-16.521 36.908-36.904V33a3 3 0 0 1 3-3z"/><path d="M250.631 30h-32a3 3 0 0 0-3 3c0 85.411-.032 170.821 0 256.232v.028c-.005 14.049-7.856 26.264-19.408 32.498a36.7 36.7 0 0 0 17.5 4.406c20.379 0 36.901-16.521 36.908-36.904v-.028c-.033-86.411 0-172.821 0-259.232m-76.008 155.596v-3.918c0-1.7-1.419-3.063-3.115-2.954C113.72 182.442 68 230.503 68 289.246 68 350.414 117.573 400 178.723 400c5.955 0 11.8-.47 17.5-1.376C143.388 390.233 103 344.457 103 289.246c0-47.399 29.767-87.844 71.623-103.65" opacity=".5" style="mix-blend-mode:multiply"/></g></svg>